<?xml version="1.0" encoding="utf-8"?>
<!DOCTYPE svg PUBLIC "-//W3C//DTD SVG 1.1//EN" "http://www.w3.org/Graphics/SVG/1.1/DTD/svg11.dtd">
<svg version="1.1" xmlns="http://www.w3.org/2000/svg" xmlns:xlink="http://www.w3.org/1999/xlink" x="0px" y="0px" width="100px"
	 height="100px" viewBox="0 0 100 100" enable-background="new 0 0 100 100" xml:space="preserve">
<g id="Livello_2">
	<g>
		<path fill="#454F4F" d="M66.092,97.215c-5.416,1.63-11.217,2.45-17.407,2.45c-7.047,0-13.301-1.119-18.759-3.352
			c-5.458-2.233-10.036-5.37-13.731-9.413c-3.696-4.039-6.511-8.874-8.444-14.503S4.849,60.515,4.849,53.637
			c0-6.875,1.032-13.151,3.095-18.824c2.063-5.673,5.005-10.55,8.832-14.634c3.824-4.081,8.465-7.24,13.924-9.476
			c5.458-2.234,11.624-3.352,18.5-3.352c5.5,0,10.51,0.603,15.021,1.805c4.514,1.205,8.575,2.793,12.186,4.77l-2.965,19.21
			c-3.354-2.147-6.986-3.952-10.896-5.415c-3.911-1.46-8.187-2.192-12.828-2.192c-3.866,0-7.22,0.689-10.056,2.063
			c-2.837,1.376-5.202,3.288-7.091,5.737c-1.892,2.45-3.311,5.395-4.255,8.832c-0.946,3.439-1.418,7.22-1.418,11.345
			c0,4.212,0.472,8.058,1.418,11.541c0.944,3.479,2.385,6.489,4.319,9.025c1.934,2.535,4.338,4.491,7.219,5.866
			C42.732,81.313,46.108,82,49.975,82c2.492,0,4.662-0.234,6.511-0.708c1.848-0.472,3.675-1.181,5.479-2.127V63.306H46.496
			l-2.58-16.374h37.26v43.322C76.536,93.264,71.506,95.583,66.092,97.215z"/>
	</g>
	
		<rect x="26.912" y="116.759" transform="matrix(1 -0.0016 0.0016 1 -0.2332 0.1232)" fill="#646D6D" width="100.375" height="58.931"/>
	<g>
		<path fill="#22D2D3" d="M61.243,90.874c-5.416,1.632-11.217,2.45-17.407,2.45c-7.048,0-13.301-1.118-18.758-3.352
			c-5.46-2.235-10.037-5.37-13.731-9.413c-3.697-4.038-6.511-8.872-8.445-14.505C0.967,60.428,0,54.175,0,47.295
			c0-6.875,1.032-13.15,3.095-18.823c2.063-5.673,5.006-10.55,8.832-14.634c3.824-4.081,8.465-7.239,13.925-9.476
			c5.457-2.234,11.624-3.352,18.5-3.352c5.5,0,10.508,0.602,15.02,1.805c4.514,1.205,8.574,2.794,12.186,4.771l-2.966,19.21
			c-3.354-2.147-6.985-3.953-10.896-5.415c-3.91-1.46-8.186-2.192-12.829-2.192c-3.867,0-7.22,0.689-10.056,2.063
			c-2.836,1.376-5.202,3.288-7.091,5.738c-1.892,2.45-3.31,5.395-4.255,8.832c-0.946,3.439-1.418,7.22-1.418,11.345
			c0,4.211,0.472,8.06,1.418,11.542c0.945,3.479,2.386,6.488,4.319,9.024s4.339,4.491,7.22,5.867
			c2.878,1.373,6.254,2.06,10.121,2.06c2.491,0,4.661-0.233,6.511-0.708c1.847-0.472,3.675-1.179,5.479-2.126v-15.86h-15.47
			l-2.579-16.373h37.259v43.322C71.686,86.923,66.657,89.242,61.243,90.874z"/>
	</g>
</g>
<g id="Layer_1">
</g>
</svg>
