<?xml version="1.0" encoding="UTF-8"?>
<!DOCTYPE svg  PUBLIC '-//W3C//DTD SVG 1.1//EN'  'http://www.w3.org/Graphics/SVG/1.1/DTD/svg11.dtd'>
<svg enable-background="new 0 0 100 56.866" version="1.1" viewBox="0 0 100 56.866" xml:space="preserve" xmlns="http://www.w3.org/2000/svg">
<g fill="#A3897A">
	<path d="M14.762,12.807l-0.514-7.854l-2.241,7.871H9.269L7.027,4.953l-0.513,7.854h-2.55L4.819,1h3.782l2.293,8.128   L13.204,1h3.68l0.855,11.807H14.762z"/>
	<path d="m23.2 11.539c-0.193 0.547-0.402 1.009-0.624 1.386-0.223 0.376-0.479 0.678-0.771 0.907-0.291 0.228-0.619 0.394-0.983 0.496-0.366 0.102-0.776 0.154-1.232 0.154-0.263 0-0.46-0.012-0.59-0.035-0.132-0.022-0.26-0.045-0.386-0.067l-0.325-2.071c0.137 0.045 0.279 0.079 0.428 0.102 0.148 0.023 0.348 0.034 0.599 0.034 0.297 0 0.565-0.06 0.804-0.18 0.24-0.119 0.428-0.328 0.565-0.625l0.103-0.256-3.046-8.197 2.772-0.325 1.626 5.288 1.54-5.168h2.499l-2.979 8.557z"/>
</g>
<path d="m22.809 51.354l-0.735-4.478c-1.467 1.566-3.097 2.826-4.883 3.781s-3.928 1.432-6.425 1.432c-2.889 0-5.238-0.844-7.049-2.533-1.811-1.69-2.717-4.173-2.717-7.454 0-4.209 1.664-7.381 4.993-9.51s8.519-3.513 15.568-4.149v-0.661c0-3.035-1.812-4.552-5.434-4.552-2.056 0-4.027 0.245-5.911 0.733-1.885 0.491-3.782 1.151-5.691 1.983l-1.323-8.372c2.056-0.832 4.271-1.505 6.646-2.02 2.375-0.514 5.031-0.771 7.968-0.771 4.993 0 8.712 0.932 11.162 2.791 2.447 1.861 3.671 5.092 3.671 9.692v24.085h-9.84zm-1.248-17.551c-1.909 0.295-3.476 0.662-4.699 1.103-1.224 0.44-2.203 0.954-2.937 1.542-0.735 0.588-1.249 1.236-1.543 1.945-0.293 0.711-0.441 1.457-0.441 2.24 0 1.127 0.319 1.994 0.955 2.607 0.636 0.611 1.469 0.916 2.497 0.916 2.056 0 4.112-0.904 6.168-2.717v-7.636z" fill="#868786"/>
<path d="m41.545 29.736h-2.464l-1.232-4.791-1.215 4.791h-2.481l-2.293-8.179 2.67-0.325 1.146 5.014 1.181-4.894h2.327l1.198 4.876 1.112-4.876h2.396l-2.345 8.384z" fill="#868786"/>
<path d="m51.975 25.903c-6e-3 0.126-0.02 0.223-0.043 0.291h-5.013c0.067 0.656 0.284 1.122 0.646 1.398 0.364 0.277 0.832 0.416 1.4 0.416 0.465 0 0.922-0.079 1.373-0.235 0.447-0.157 0.907-0.363 1.374-0.621l0.256 1.813c-0.457 0.297-0.961 0.528-1.516 0.693-0.552 0.166-1.159 0.248-1.822 0.248-0.627 0-1.206-0.085-1.736-0.256-0.531-0.172-0.986-0.434-1.368-0.788-0.382-0.353-0.68-0.801-0.89-1.343-0.212-0.542-0.317-1.189-0.317-1.942 0-0.685 0.1-1.298 0.299-1.84 0.201-0.542 0.474-1.003 0.821-1.386 0.348-0.382 0.765-0.674 1.25-0.873s1.013-0.299 1.584-0.299c0.639 0 1.19 0.111 1.659 0.334 0.467 0.222 0.854 0.53 1.155 0.923 0.303 0.394 0.529 0.856 0.678 1.387s0.221 1.097 0.221 1.702c-4e-3 0.127-6e-3 0.252-0.011 0.378zm-3.765-3.046c-0.362 0-0.661 0.157-0.893 0.47-0.232 0.314-0.371 0.796-0.417 1.446h2.618c-0.089-1.277-0.525-1.916-1.308-1.916z" fill="#868786"/>
<path d="m59.041 29.18c-0.586 0.462-1.438 0.693-2.557 0.693-0.674 0-1.311-0.084-1.908-0.248-0.6-0.166-1.115-0.363-1.549-0.591l0.309-1.968c0.5 0.308 1.035 0.551 1.6 0.728s1.086 0.265 1.564 0.265c0.709 0 1.063-0.21 1.063-0.633 0-0.103-0.02-0.193-0.061-0.273-0.039-0.08-0.111-0.154-0.215-0.223-0.102-0.067-0.244-0.136-0.428-0.205-0.182-0.069-0.422-0.137-0.719-0.206-0.523-0.136-0.975-0.279-1.35-0.428-0.377-0.148-0.688-0.325-0.934-0.53-0.246-0.206-0.426-0.445-0.539-0.719s-0.17-0.61-0.17-1.01c0-0.787 0.275-1.417 0.828-1.89 0.553-0.474 1.35-0.71 2.389-0.71 0.57 0 1.119 0.054 1.65 0.163 0.531 0.108 1.014 0.26 1.445 0.453l-0.324 1.968c-0.457-0.25-0.93-0.445-1.422-0.581-0.49-0.137-0.934-0.206-1.334-0.206-0.309 0-0.533 0.051-0.676 0.154s-0.215 0.234-0.215 0.394c0 0.092 0.021 0.171 0.061 0.239 0.039 0.069 0.111 0.135 0.215 0.197 0.104 0.063 0.244 0.129 0.428 0.197 0.182 0.069 0.422 0.143 0.719 0.223 0.559 0.148 1.029 0.302 1.412 0.462 0.381 0.159 0.693 0.342 0.932 0.547 0.24 0.205 0.41 0.445 0.514 0.718 0.104 0.274 0.154 0.605 0.154 0.993 1e-3 0.889-0.294 1.564-0.882 2.027z" fill="#868786"/>
<path d="m68.65 27.357c-0.205 0.536-0.488 0.993-0.848 1.37-0.359 0.376-0.787 0.666-1.283 0.873-0.496 0.205-1.035 0.307-1.617 0.307-0.58 0-1.115-0.1-1.6-0.299-0.486-0.199-0.906-0.488-1.266-0.864-0.359-0.376-0.639-0.833-0.838-1.369-0.201-0.536-0.301-1.141-0.301-1.813s0.1-1.281 0.301-1.823c0.199-0.542 0.479-1.001 0.838-1.377s0.783-0.667 1.275-0.873c0.49-0.205 1.025-0.308 1.607-0.308s1.117 0.103 1.607 0.308c0.492 0.206 0.916 0.497 1.275 0.873s0.643 0.833 0.848 1.369 0.309 1.142 0.309 1.814c2e-3 0.672-0.102 1.277-0.307 1.812zm-2.584-3.439c-0.262-0.411-0.645-0.616-1.146-0.616s-0.881 0.203-1.137 0.607c-0.258 0.405-0.387 0.95-0.387 1.634s0.131 1.234 0.395 1.651c0.262 0.417 0.639 0.625 1.129 0.625 0.502 0 0.885-0.205 1.146-0.616 0.262-0.411 0.395-0.958 0.395-1.643 0-0.684-0.133-1.231-0.395-1.642z" fill="#868786"/>
<path d="m79.877 29.736v-5.253c0-0.297-0.064-0.54-0.189-0.728s-0.336-0.282-0.633-0.282c-0.229 0-0.457 0.066-0.684 0.197-0.229 0.131-0.457 0.311-0.686 0.539v5.527h-2.584v-5.253c0-0.297-0.063-0.54-0.188-0.728-0.127-0.188-0.336-0.282-0.635-0.282-0.238 0-0.469 0.066-0.691 0.197-0.223 0.131-0.447 0.311-0.676 0.539v5.527h-2.584v-8.384h2.275l0.189 1.146c0.375-0.388 0.766-0.705 1.17-0.95 0.406-0.246 0.883-0.368 1.43-0.368 0.582 0 1.035 0.125 1.359 0.376 0.326 0.251 0.568 0.564 0.729 0.941 0.375-0.377 0.773-0.69 1.195-0.941 0.418-0.251 0.891-0.376 1.414-0.376 0.785 0 1.377 0.229 1.773 0.684 0.398 0.457 0.598 1.096 0.598 1.917v5.955h-2.582z" fill="#868786"/>
<path d="m91.453 25.903c-8e-3 0.126-0.02 0.223-0.043 0.291h-5.014c0.066 0.656 0.283 1.122 0.646 1.398s0.832 0.416 1.4 0.416c0.465 0 0.922-0.079 1.371-0.235s0.906-0.363 1.373-0.621l0.256 1.813c-0.457 0.297-0.961 0.528-1.516 0.693-0.551 0.166-1.158 0.248-1.822 0.248-0.627 0-1.205-0.085-1.736-0.256-0.529-0.172-0.986-0.434-1.367-0.788-0.385-0.353-0.68-0.801-0.891-1.343-0.213-0.542-0.316-1.189-0.316-1.942 0-0.685 0.1-1.298 0.299-1.84 0.201-0.542 0.473-1.003 0.82-1.386 0.35-0.382 0.766-0.674 1.25-0.873s1.014-0.299 1.584-0.299c0.639 0 1.191 0.111 1.66 0.334 0.467 0.222 0.852 0.53 1.154 0.923s0.527 0.856 0.676 1.387 0.223 1.097 0.223 1.702c1e-3 0.127-3e-3 0.252-7e-3 0.378zm-3.765-3.046c-0.361 0-0.66 0.157-0.893 0.47-0.232 0.314-0.371 0.796-0.416 1.446h2.617c-0.09-1.277-0.525-1.916-1.308-1.916z" fill="#868786"/>
<path d="m54.305 47.481c-0.314 0.895-0.762 1.632-1.344 2.214-0.58 0.582-1.279 1.012-2.096 1.289-0.813 0.277-1.73 0.416-2.751 0.416-1.073 0-2.089-0.08-3.047-0.242-0.957-0.162-1.821-0.393-2.59-0.699v-17.959l4.055-0.646v7.667c0.412-0.428 0.903-0.816 1.477-1.174 0.571-0.354 1.252-0.531 2.04-0.531 0.661 0 1.285 0.129 1.867 0.389 0.58 0.26 1.084 0.658 1.504 1.195 0.42 0.535 0.75 1.211 0.992 2.025s0.363 1.777 0.363 2.887c-2e-3 1.218-0.16 2.274-0.47 3.169zm-4.137-5.328c-0.366-0.492-0.836-0.74-1.41-0.74-0.429 0-0.823 0.117-1.181 0.352-0.359 0.232-0.709 0.539-1.047 0.916v5.229c0.268 0.09 0.505 0.154 0.71 0.189s0.46 0.055 0.766 0.055c0.805 0 1.458-0.27 1.959-0.809 0.499-0.539 0.751-1.465 0.751-2.779 2e-3 -1.114-0.179-1.917-0.548-2.413z" fill="#A3897A"/>
<path d="M57.082,51.238V32.5l4.053-0.646v19.383H57.082z" fill="#A3897A"/>
<path d="m75.553 47.506c-0.322 0.842-0.766 1.558-1.33 2.148-0.563 0.592-1.234 1.047-2.012 1.369-0.781 0.322-1.625 0.484-2.537 0.484-0.914 0-1.75-0.156-2.512-0.471-0.76-0.313-1.422-0.766-1.984-1.355-0.566-0.592-1.004-1.306-1.316-2.146-0.314-0.842-0.471-1.791-0.471-2.848s0.156-2.008 0.471-2.859c0.313-0.85 0.75-1.568 1.316-2.16 0.563-0.592 1.229-1.047 1.998-1.369 0.77-0.323 1.611-0.482 2.523-0.482s1.754 0.159 2.525 0.482c0.77 0.322 1.436 0.777 1.998 1.369 0.564 0.592 1.008 1.307 1.33 2.146 0.322 0.842 0.482 1.791 0.482 2.848 1e-3 1.055-0.159 2.005-0.481 2.844zm-4.055-5.394c-0.41-0.646-1.012-0.967-1.799-0.967s-1.381 0.318-1.785 0.953c-0.402 0.635-0.604 1.49-0.604 2.564 0 1.072 0.205 1.936 0.617 2.59 0.41 0.652 1.002 0.98 1.771 0.98 0.787 0 1.389-0.322 1.799-0.967 0.412-0.645 0.619-1.504 0.619-2.578 1e-3 -1.071-0.206-1.931-0.618-2.575z" fill="#A3897A"/>
<path d="m90.426 37.95l0.51 3.008c-0.482 0.018-0.867 0.025-1.154 0.025s-0.67 0.01-1.154 0.027c0.162 0.465 0.242 0.932 0.242 1.396 0 0.715-0.145 1.355-0.43 1.92-0.287 0.563-0.682 1.037-1.182 1.422s-1.078 0.682-1.732 0.887c-0.652 0.205-1.355 0.309-2.105 0.309-0.43 0-0.844-0.025-1.236-0.082-0.215 0.213-0.322 0.404-0.322 0.582 0 0.086 0.027 0.162 0.08 0.223 0.055 0.063 0.156 0.119 0.311 0.172 0.15 0.053 0.361 0.102 0.629 0.146 0.27 0.041 0.627 0.09 1.076 0.143l2.414 0.158c1.324 0.145 2.359 0.447 3.102 0.908 0.742 0.461 1.113 1.195 1.113 2.207 0 0.715-0.182 1.363-0.549 1.945s-0.883 1.078-1.545 1.49-1.441 0.73-2.336 0.953c-0.895 0.225-1.869 0.336-2.926 0.336-0.93 0-1.781-0.066-2.551-0.201s-1.436-0.336-2-0.605c-0.563-0.27-1.002-0.602-1.314-0.994-0.314-0.396-0.471-0.844-0.471-1.346 0-0.574 0.176-1.086 0.523-1.533 0.35-0.447 0.891-0.879 1.625-1.289-0.484-0.43-0.727-0.912-0.727-1.447 0-0.84 0.654-1.623 1.961-2.357-0.824-0.375-1.449-0.889-1.879-1.543-0.432-0.652-0.645-1.41-0.645-2.268 0-0.717 0.139-1.365 0.416-1.947s0.662-1.072 1.154-1.477c0.492-0.402 1.078-0.713 1.76-0.926 0.68-0.216 1.412-0.322 2.201-0.322 0.84 0 1.598 0.111 2.268 0.336 0.672 0.223 1.256 0.531 1.758 0.926l3.115-1.182zm-10.256 14.523c0 0.465 0.27 0.842 0.807 1.129 0.537 0.285 1.396 0.43 2.576 0.43 1.074 0 1.896-0.152 2.469-0.457 0.574-0.305 0.859-0.672 0.859-1.102 0-0.303-0.139-0.531-0.414-0.684-0.279-0.152-0.775-0.273-1.492-0.363l-1.959-0.16c-0.482-0.035-0.869-0.076-1.154-0.121s-0.59-0.094-0.914-0.148c-0.518 0.519-0.778 1.013-0.778 1.476zm4.564-11.609c-0.34-0.404-0.816-0.604-1.424-0.604-0.59 0-1.051 0.213-1.383 0.643s-0.496 0.959-0.496 1.584c0 0.627 0.164 1.133 0.496 1.518 0.332 0.383 0.793 0.576 1.383 0.576 0.627 0 1.105-0.205 1.436-0.617 0.332-0.412 0.498-0.93 0.498-1.557s-0.17-1.141-0.51-1.543z" fill="#A3897A"/>
</svg>