<?xml version="1.0" encoding="utf-8"?>
<!DOCTYPE svg PUBLIC "-//W3C//DTD SVG 1.1//EN" "http://www.w3.org/Graphics/SVG/1.1/DTD/svg11.dtd">
<svg version="1.1" id="Livello_1" xmlns="http://www.w3.org/2000/svg" xmlns:xlink="http://www.w3.org/1999/xlink" x="0px" y="0px"
	 width="123px" height="119px" viewBox="0 0 123 119" enable-background="new 0 0 123 119" xml:space="preserve">
<g>
	<path fill-rule="evenodd" clip-rule="evenodd" fill="#FFFFFF" d="M63.054,120.984c-19.665,0-39.329-0.041-58.993,0.054
		c-2.351,0.011-3.144-0.34-3.136-2.991C1.035,80.052,1.021,42.056,0.948,4.061c-0.004-2.35,0.338-3.144,2.991-3.136
		c39.328,0.109,78.656,0.096,117.984,0.023c2.351-0.004,3.145,0.338,3.137,2.99c-0.11,37.995-0.131,75.99,0.025,113.985
		c0.014,3.181-1.15,3.121-3.539,3.11C102.049,120.946,82.551,120.984,63.054,120.984z M24.833,41.959
		c-2.144,0.611-4.371,1.113-4.928,3.787c-6.906,0.559-6.906,0.559-6.909,7.672c0,0.812-0.002,1.623-0.004,2.434
		c-2.503,2.87-5.033,5.718-7.5,8.618c-1.38,1.621-2.591,3.176-2.561,5.654c0.189,15.286,0.178,30.574,0.234,45.861
		c-0.601,2.778-0.092,4.092,3.358,4.079c36.305-0.132,72.61-0.131,108.914-0.001c3.408,0.012,4.01-1.234,3.385-4.053
		c0.054-31.567,0.079-63.135,0.215-94.703c0.011-2.637-0.789-3.434-3.392-3.363c-6.143,0.166-12.314,0.361-18.437-0.048
		c-4.704-0.314-7.279,0.721-6.387,5.961c-3.07-2.904-4.094-6.379-3.939-10.653c0.193-5.37-3.153-8.397-8.965-9.079
		c-6.279,0.323-9.372,3.526-9.755,9.975c-0.123,2.082,0.682,4.342-0.952,6.185c-2.794,3.154-3.433,7.033-3.763,11.022
		c-1.429-0.139-2.857-0.277-4.286-0.416c-0.056-4.474-0.219-8.95-0.125-13.421c0.049-2.358-0.298-3.579-3.16-3.539
		c-11.274,0.158-22.552,0.123-33.827,0.018c-2.373-0.022-3.175,0.693-3.099,3.088c0.156,4.969,0.439,9.988-0.063,14.912
		c-0.513,5.015,1.167,6.965,6.089,6.192C24.929,39.415,24.881,40.687,24.833,41.959z"/>
	<path fill-rule="evenodd" clip-rule="evenodd" fill="#3AB076" d="M90.821,23.859c-0.893-5.24,1.683-6.276,6.387-5.961
		c6.122,0.409,12.294,0.213,18.437,0.048c2.603-0.07,3.402,0.727,3.392,3.363c-0.136,31.567-0.161,63.135-0.215,94.703
		c-9.313-0.032-18.624-0.064-27.937-0.098C90.864,85.229,90.843,54.544,90.821,23.859z M105.133,31.996
		c1.33,0,2.66,0.007,3.99-0.002c1.936-0.013,3.895,0.529,3.966-2.769c0.073-3.344-1.651-3.333-4.011-3.253
		c-2.989,0.1-5.989,0.142-8.974-0.012c-2.323-0.12-3.186,0.607-3.193,3.057c-0.009,2.507,0.971,3.186,3.238,3.003
		C101.801,31.888,103.472,31.995,105.133,31.996z M105.226,53.994c-1.662,0-3.331,0.09-4.986-0.022
		c-2.151-0.146-3.378,0.273-3.327,2.905c0.044,2.328,0.642,3.287,3.095,3.157c3.316-0.175,6.655-0.177,9.971,0
		c2.471,0.132,3.034-0.861,3.082-3.173c0.054-2.653-1.217-3.035-3.347-2.887C108.224,54.078,106.722,53.994,105.226,53.994z
		 M105.113,87.989c1.33,0,2.665-0.075,3.989,0.017c2.393,0.166,4.056,0.039,3.987-3.271c-0.069-3.329-2.074-2.727-3.985-2.74
		c-2.993-0.021-5.99,0.107-8.977-0.041c-2.294-0.114-3.218,0.554-3.218,3.035c0.001,2.479,0.923,3.217,3.218,3.025
		C101.779,87.877,103.451,87.987,105.113,87.989z M105.214,45.992c1.663,0,3.334-0.108,4.985,0.027
		c2.204,0.179,2.812-0.764,2.846-2.877c0.039-2.307-0.563-3.324-3.053-3.189c-3.314,0.18-6.652,0.172-9.969,0.001
		c-2.431-0.125-3.073,0.794-3.111,3.143c-0.042,2.612,1.151,3.069,3.317,2.919C101.884,45.901,103.553,45.993,105.214,45.992z
		 M105.055,73.989c1.496,0,3.001-0.103,4.487,0.023c2.411,0.205,3.568-0.417,3.533-3.217c-0.033-2.718-1.358-2.888-3.416-2.828
		c-3.156,0.092-6.32,0.124-9.474-0.009c-2.222-0.094-3.298,0.42-3.274,2.975c0.021,2.404,0.789,3.296,3.159,3.084
		C101.72,73.869,103.393,73.988,105.055,73.989z"/>
	<path fill-rule="evenodd" clip-rule="evenodd" fill="#7287C1" d="M12.991,55.853c0.001-0.811,0.003-1.623,0.004-2.434
		c0.003-7.113,0.003-7.113,6.91-7.672c1.696,0.047,3.393,0.093,5.089,0.139c0.668,0,1.337,0,2.006,0c3.331,0,6.662,0,9.993,0
		c0.668,0,1.337,0,2.006,0c3.998,0,7.995,0,11.993,0c0.662,0.006,1.324,0.011,1.986,0.017c3.604-0.033,7.209-0.066,10.814-0.099
		c0.068,3.701,0.137,7.401,0.205,11.102c-4.192,5.854-7.424,12.237-10.886,18.455c1.778,1.11,3.502,0.021,5.079,1.716
		c-1.697,2.603-3.469,5.32-5.242,8.04c-0.04-0.329-0.097-0.657-0.116-0.987c-0.17-2.964-1.478-5.114-4.502-5.764
		c-2.34-0.503-3.778,1.048-4.763,2.826c-1.108,2-0.454,3.924,1.139,5.395c2.481,2.287,4.861,1.216,7.152-0.462
		c0.127-0.093,0.31-0.111,0.467-0.164c-1.971,3.868-3.943,7.737-6.211,12.188c4.726,0,8.808,0,12.89,0
		c-0.005,5.894-0.01,11.788-0.015,17.681c-3.33,0.001-6.66,0.001-9.989,0.001c-0.001-3.305-0.245-6.631,0.063-9.906
		c0.324-3.449-1.144-4.072-4.213-4.001c-7.263,0.169-14.534-0.001-21.801-0.033c-0.017-10.288-0.034-20.576-0.048-30.863
		c-0.002-1.806,0.213-3.618-1.171-5.153C18.846,62.565,15.933,59.197,12.991,55.853z M30.766,49.134
		c-2.585,0.656-4.648,2.055-4.591,4.932c0.061,3.08,2.054,4.979,5.121,4.734c2.736-0.219,4.584-2.203,4.433-4.999
		C35.578,51.03,33.604,49.517,30.766,49.134z M52.701,53.785c-0.777-2.374-1.873-4.687-4.958-4.529
		c-2.876,0.147-4.646,1.916-4.592,4.849c0.053,2.93,1.91,4.683,4.757,4.707C50.904,58.836,52.116,56.609,52.701,53.785z
		 M31.043,73.077c3.209,0.078,4.661-2.019,4.619-4.671c-0.043-2.712-1.699-4.513-4.847-4.447c-3.207,0.065-4.514,2.091-4.613,4.742
		C26.089,71.728,28.165,73.02,31.043,73.077z M35.812,83.616c-0.373-2.913-1.815-5.039-4.633-5.128
		c-2.684-0.085-4.868,1.512-5.008,4.449c-0.137,2.885,1.644,4.743,4.479,4.954C33.591,88.11,35.02,86.056,35.812,83.616z
		 M47.625,73.082c3.126,0.246,4.846-1.55,4.97-4.275c0.126-2.769-1.75-4.513-4.579-4.784c-3.119-0.3-4.603,1.666-4.837,4.382
		C42.921,71.384,44.753,72.862,47.625,73.082z"/>
	<path fill-rule="evenodd" clip-rule="evenodd" fill="#C4A5CE" d="M90.821,23.859c0.021,30.685,0.043,61.37,0.063,92.055
		c-2.63-0.028-5.261-0.058-7.891-0.086c-0.027-2.927-0.054-5.853-0.081-8.779c5.979-4.569,6.521-6.624,3.714-14.115
		c-0.175-6.717-3.699-10.949-9.829-13.246c1.397-1.282,1.207-2.974,1.205-4.623c-0.017-19.012-0.03-38.024-0.045-57.037
		c2.395-0.411,3.78-1.726,4.033-4.234c0.309-3.059-2.063-3.78-4.057-4.864c-0.006-1.601-0.012-3.201-0.018-4.802
		c5.812,0.681,9.158,3.709,8.965,9.079C86.728,17.48,87.751,20.956,90.821,23.859z M85.769,52.874
		c1.805,0.186,2.233-1.063,2.224-2.773c-0.009-1.598-0.176-2.932-2.271-3.024c-2.26-0.1-2.771,1.113-2.746,3.055
		C82.999,51.893,83.551,52.997,85.769,52.874z M85.203,38.116c-1.836-0.176-2.217,1.11-2.216,2.799c0,1.616,0.213,2.918,2.298,2.999
		c2.277,0.087,2.74-1.166,2.718-3.087C87.982,39.052,87.393,37.98,85.203,38.116z M87.948,31.407
		c0.072-1.747-0.908-2.325-2.487-2.329c-1.624-0.005-2.429,0.699-2.461,2.376c-0.039,1.959,0.923,2.628,2.767,2.553
		C87.533,33.937,88.031,32.941,87.948,31.407z"/>
	<path fill-rule="evenodd" clip-rule="evenodd" fill="#DC4638" d="M24.977,38.143c-4.922,0.773-6.602-1.177-6.089-6.192
		c0.503-4.924,0.22-9.942,0.063-14.912c-0.076-2.395,0.727-3.11,3.099-3.088c11.275,0.105,22.553,0.14,33.827-0.018
		c2.862-0.04,3.209,1.18,3.16,3.539c-0.094,4.471,0.069,8.947,0.125,13.422c0.09,4.241,0.251,8.542-6.163,7.255
		c-0.676-0.002-1.353-0.005-2.029-0.007c-3.983,0-7.966,0-11.95,0c-0.683,0-1.366,0-2.048,0c-0.982,0.004-1.964,0.007-2.946,0.011
		c-2.339,0-4.68,0-7.019,0C26.33,38.15,25.653,38.146,24.977,38.143z M35.119,32.497c3.59-2.162,6.617-3.983,10.141-6.105
		c-3.596-2.113-6.669-3.919-10.141-5.959C35.119,24.621,35.119,28.088,35.119,32.497z"/>
	<path fill-rule="evenodd" clip-rule="evenodd" fill="#F4971C" d="M12.991,55.853c2.941,3.344,5.855,6.713,8.836,10.02
		c1.384,1.535,1.168,3.348,1.171,5.153c0.014,10.287,0.031,20.575,0.048,30.863c-3.831,0.642-8.923-1.652-11.261,1.065
		c-2.425,2.817-0.516,7.842-0.788,11.89c-0.022,0.326-0.01,0.654-0.013,0.981c-2.606,0.054-5.213,0.107-7.819,0.161
		C3.109,100.699,3.12,85.411,2.931,70.125c-0.03-2.479,1.181-4.033,2.561-5.654C7.958,61.57,10.488,58.723,12.991,55.853z
		 M6.998,82.944c0.118,1.346-0.458,3.011,1.945,3.053c2.36,0.041,2.064-1.527,2.034-2.948c-0.029-1.359,0.469-3.017-1.923-3.062
		C6.693,79.943,7.049,81.52,6.998,82.944z M15.038,82.748c0.323,1.037-0.89,2.979,1.643,3.217c2.245,0.21,2.43-1.141,2.291-2.789
		c-0.113-1.353,0.583-3.124-1.913-3.178C15.077,79.955,14.948,81.103,15.038,82.748z M15.038,92.747
		c0.323,1.037-0.89,2.979,1.643,3.217c2.245,0.209,2.43-1.141,2.291-2.789c-0.113-1.353,0.583-3.125-1.913-3.179
		C15.077,89.953,14.948,91.102,15.038,92.747z M7.019,93.043c0.16,1.101-0.604,2.838,1.829,2.952
		c2.311,0.106,2.218-1.359,2.129-2.852c-0.079-1.316,0.591-3.042-1.827-3.155C6.851,89.88,6.978,91.34,7.019,93.043z M10.951,73.919
		c0.22-1.314-0.423-1.907-1.879-1.923c-1.39-0.017-2.066,0.444-2.07,1.928c-0.004,1.393,0.453,2.064,1.935,2.064
		C10.32,75.989,11.104,75.561,10.951,73.919z M17.015,72.042c-1.547-0.165-2.053,0.611-1.999,2.06
		c0.044,1.172,0.381,1.863,1.709,1.87c1.315,0.008,2.26-0.171,2.259-1.836C18.983,72.715,18.58,71.883,17.015,72.042z"/>
	<path fill-rule="evenodd" clip-rule="evenodd" fill="#9E6EAD" d="M77.917,4.127c0.006,1.601,0.012,3.202,0.018,4.803
		c-1.929,1.138-4.331,1.779-4.056,4.876c0.232,2.627,1.795,3.709,4.079,4.221c0.015,19.012,0.028,38.024,0.045,57.037
		c0.002,1.649,0.192,3.341-1.202,4.624c-0.494-0.011-0.991-0.021-1.487-0.031c-1.688-1.171-5.116,0.639-5.339-3.356
		c1.553-0.192,3.099-0.385,5.307-0.659c-4.268-6.185-6.735-12.898-11.406-18.313l0.121-0.424c-0.068-3.7-0.137-7.401-0.204-11.101
		c-0.077-4.833,0.5-9.68-0.345-14.495c0.33-3.989,0.969-7.868,3.763-11.022c1.634-1.843,0.829-4.103,0.952-6.185
		C68.545,7.654,71.638,4.45,77.917,4.127z M70.205,34c1.469-0.016,1.979-0.842,1.905-2.201c-0.077-1.44-0.896-1.961-2.241-1.913
		c-1.476,0.053-1.917,0.923-1.884,2.247C68.023,33.618,68.868,34.093,70.205,34z M72.108,40.799c-0.036-1.483-0.9-1.977-2.256-1.923
		c-1.513,0.06-1.909,0.981-1.863,2.302c0.052,1.469,0.871,1.999,2.242,1.924C71.713,43.021,72.178,42.129,72.108,40.799z
		 M72.113,50.06c0.046-1.382-0.569-2.135-2.005-2.179c-1.434-0.044-2.095,0.64-2.119,2.05c-0.024,1.374,0.524,2.162,1.988,2.18
		C71.383,52.127,72.11,51.486,72.113,50.06z"/>
	<path fill-rule="evenodd" clip-rule="evenodd" fill="#159D58" d="M3.165,115.986c2.606-0.054,5.213-0.107,7.819-0.161
		c12.671,0.002,25.343,0.003,38.014,0.004c3.33,0,6.66,0,9.989,0c3.341,0.011,6.681,0.022,10.022,0.033c1.987,0,3.976,0,5.963,0
		c2.675-0.012,5.349-0.023,8.022-0.035c2.63,0.029,5.261,0.059,7.891,0.087c9.313,0.033,18.624,0.065,27.937,0.098
		c0.625,2.818,0.023,4.064-3.385,4.053c-36.304-0.13-72.609-0.131-108.914,0.001C3.073,120.078,2.564,118.765,3.165,115.986z"/>
	<path fill-rule="evenodd" clip-rule="evenodd" fill="#CDD8EF" d="M63.447,31.309c0.845,4.814,0.268,9.662,0.345,14.495
		c-3.606,0.033-7.21,0.065-10.815,0.099c0.007-2.583,0.014-5.168,0.021-7.753c6.415,1.286,6.253-3.014,6.164-7.255
		C60.59,31.032,62.019,31.17,63.447,31.309z"/>
	<path fill-rule="evenodd" clip-rule="evenodd" fill="#737474" d="M24.977,38.143c0.676,0.003,1.353,0.007,2.029,0.01
		c0.048,0.941,0.095,1.883,0.143,2.824c-0.05,1.636-0.1,3.272-0.149,4.909c-0.668,0-1.337,0-2.006,0.001
		c-0.053-1.309-0.107-2.618-0.161-3.928C24.881,40.687,24.929,39.415,24.977,38.143z"/>
	<path fill-rule="evenodd" clip-rule="evenodd" fill="#D4DDF2" d="M24.833,41.959c0.054,1.31,0.108,2.619,0.161,3.928
		c-1.696-0.047-3.393-0.093-5.089-0.14C20.462,43.072,22.689,42.57,24.833,41.959z"/>
	<path fill-rule="evenodd" clip-rule="evenodd" fill="#FFFFFF" d="M105.133,31.996c-1.661-0.001-3.332-0.108-4.983,0.025
		c-2.268,0.183-3.247-0.496-3.238-3.003c0.008-2.45,0.87-3.177,3.193-3.057c2.984,0.154,5.984,0.112,8.974,0.012
		c2.359-0.08,4.084-0.091,4.011,3.253c-0.071,3.298-2.03,2.755-3.966,2.769C107.793,32.003,106.463,31.996,105.133,31.996z"/>
	<path fill-rule="evenodd" clip-rule="evenodd" fill="#FFFFFF" d="M105.226,53.994c1.496,0,2.998,0.083,4.487-0.02
		c2.13-0.148,3.4,0.234,3.347,2.887c-0.048,2.312-0.611,3.305-3.082,3.173c-3.315-0.177-6.654-0.175-9.971,0
		c-2.453,0.13-3.051-0.829-3.095-3.157c-0.051-2.631,1.176-3.05,3.327-2.905C101.895,54.084,103.563,53.994,105.226,53.994z"/>
	<path fill-rule="evenodd" clip-rule="evenodd" fill="#FFFFFF" d="M105.113,87.988c-1.662-0.001-3.334-0.111-4.985,0.026
		c-2.295,0.191-3.217-0.546-3.218-3.025c0-2.481,0.924-3.149,3.218-3.035c2.986,0.148,5.983,0.02,8.977,0.041
		c1.911,0.014,3.916-0.589,3.985,2.74c0.068,3.31-1.595,3.437-3.987,3.271C107.778,87.914,106.443,87.989,105.113,87.988z"/>
	<path fill-rule="evenodd" clip-rule="evenodd" fill="#FFFFFF" d="M105.214,45.992c-1.661,0.001-3.33-0.091-4.984,0.023
		c-2.166,0.15-3.359-0.307-3.317-2.919c0.038-2.348,0.681-3.268,3.111-3.143c3.316,0.171,6.654,0.178,9.969-0.001
		c2.489-0.135,3.092,0.882,3.053,3.189c-0.034,2.113-0.642,3.056-2.846,2.877C108.548,45.884,106.877,45.992,105.214,45.992z"/>
	<path fill-rule="evenodd" clip-rule="evenodd" fill="#FFFFFF" d="M105.055,73.989c-1.662-0.001-3.335-0.12-4.984,0.028
		c-2.37,0.212-3.138-0.68-3.159-3.084c-0.023-2.555,1.053-3.068,3.274-2.975c3.153,0.133,6.317,0.101,9.474,0.009
		c2.058-0.06,3.383,0.11,3.416,2.828c0.035,2.8-1.122,3.422-3.533,3.217C108.056,73.887,106.551,73.989,105.055,73.989z"/>
	<path fill-rule="evenodd" clip-rule="evenodd" fill="#F5E83B" d="M48.998,115.829c-12.671-0.001-25.342-0.002-38.014-0.004
		c0.004-0.327-0.008-0.655,0.014-0.981c0.271-4.048-1.637-9.072,0.788-11.89c2.338-2.718,7.43-0.424,11.261-1.065
		c7.268,0.032,14.539,0.202,21.801,0.033c3.069-0.071,4.537,0.552,4.213,4.001C48.753,109.198,48.996,112.524,48.998,115.829z
		 M33.93,109.764c-0.242-0.759-0.967-1.674-2.284-1.551c-1.574,0.147-2.272,1.317-2.053,2.796c0.194,1.312,1.163,1.996,2.509,1.723
		C33.379,112.473,34.067,111.623,33.93,109.764z M20.007,110.347c-0.1-1.135-0.751-2.077-2.063-2.105
		c-1.545-0.034-2.427,0.975-2.303,2.481c0.102,1.234,0.927,2.132,2.284,2.026C19.208,112.649,19.965,111.864,20.007,110.347z
		 M26.949,110.023c-0.156-1.092-0.976-1.857-2.25-1.799c-1.303,0.061-2.156,1.055-2.101,2.27c0.064,1.397,0.875,2.533,2.542,2.225
		C26.398,112.486,27.072,111.612,26.949,110.023z"/>
	<path fill-rule="evenodd" clip-rule="evenodd" fill="#B7D7AA" d="M52.946,85.116c1.773-2.72,3.545-5.438,5.242-8.04
		c-1.576-1.695-3.3-0.605-5.079-1.716c3.462-6.218,6.694-12.602,10.886-18.455c0,0-0.121,0.423-0.12,0.423
		c0.105,8.279,0.212,16.558,0.317,24.837c-4.259,4.489-5.38,9.805-4.144,15.74c-0.349,0.08-0.698,0.161-1.047,0.241
		c-4.082,0-8.164,0-12.89,0c2.268-4.45,4.24-8.319,6.209-12.187C52.528,85.68,52.737,85.397,52.946,85.116z"/>
	<path fill-rule="evenodd" clip-rule="evenodd" fill="#674131" d="M59.002,98.147c0.35-0.08,0.698-0.161,1.047-0.241
		c2.427,3.353,4.979,6.565,9.036,8.098c-0.025,3.286-0.051,6.571-0.075,9.858c-3.342-0.011-6.682-0.022-10.023-0.033
		C58.992,109.936,58.997,104.041,59.002,98.147z"/>
	<path fill-rule="evenodd" clip-rule="evenodd" fill="#D4DDF2" d="M39.02,38.142c3.983,0,7.966,0,11.95,0
		c0.007,2.581,0.014,5.162,0.021,7.743c-3.998,0-7.995,0-11.993,0.001C39.005,43.306,39.012,40.724,39.02,38.142z"/>
	<path fill-rule="evenodd" clip-rule="evenodd" fill="#CDD8EF" d="M30.766,49.134c2.837,0.383,4.812,1.896,4.962,4.667
		c0.151,2.796-1.697,4.78-4.433,4.999c-3.066,0.245-5.06-1.654-5.121-4.734C26.118,51.189,28.181,49.79,30.766,49.134z"/>
	<path fill-rule="evenodd" clip-rule="evenodd" fill="#CDD8EF" d="M52.701,53.785c-0.585,2.825-1.797,5.052-4.793,5.027
		c-2.848-0.024-4.704-1.777-4.757-4.707c-0.054-2.933,1.715-4.701,4.592-4.849C50.829,49.098,51.924,51.411,52.701,53.785z"/>
	<path fill-rule="evenodd" clip-rule="evenodd" fill="#CDD8EF" d="M52.946,85.116c-0.209,0.281-0.418,0.563-0.625,0.845
		c-0.155,0.052-0.337,0.07-0.465,0.163c-2.291,1.678-4.671,2.749-7.152,0.462c-1.593-1.471-2.247-3.395-1.139-5.395
		c0.985-1.778,2.423-3.329,4.763-2.826c3.024,0.649,4.332,2.8,4.502,5.764C52.85,84.459,52.907,84.787,52.946,85.116z"/>
	<path fill-rule="evenodd" clip-rule="evenodd" fill="#CDD8EF" d="M31.043,73.077c-2.878-0.058-4.954-1.35-4.841-4.376
		c0.099-2.651,1.406-4.677,4.613-4.742c3.147-0.065,4.803,1.735,4.847,4.447C35.704,71.059,34.252,73.155,31.043,73.077z"/>
	<path fill-rule="evenodd" clip-rule="evenodd" fill="#CDD8EF" d="M35.812,83.616c-0.792,2.439-2.221,4.494-5.163,4.275
		c-2.834-0.211-4.616-2.069-4.479-4.954c0.14-2.938,2.324-4.534,5.008-4.449C33.997,78.577,35.439,80.703,35.812,83.616z"/>
	<path fill-rule="evenodd" clip-rule="evenodd" fill="#CDD8EF" d="M47.625,73.082c-2.872-0.22-4.704-1.698-4.446-4.678
		c0.235-2.716,1.719-4.682,4.837-4.382c2.83,0.271,4.706,2.016,4.579,4.784C52.471,71.532,50.751,73.328,47.625,73.082z"/>
	<path fill-rule="evenodd" clip-rule="evenodd" fill="#D4DDF2" d="M27,45.886c0.049-1.637,0.099-3.273,0.149-4.91
		c2.519-0.389,5.975,1.505,6.876-2.823c0.982-0.004,1.964-0.007,2.946-0.011c0.007,2.581,0.014,5.162,0.021,7.743
		C33.661,45.885,30.33,45.886,27,45.886z"/>
	<path fill-rule="evenodd" clip-rule="evenodd" fill="#737474" d="M50.991,45.885c-0.007-2.581-0.015-5.163-0.021-7.743
		c0.677,0.002,1.353,0.005,2.029,0.007c-0.007,2.585-0.015,5.17-0.021,7.753C52.315,45.896,51.653,45.891,50.991,45.885z"/>
	<path fill-rule="evenodd" clip-rule="evenodd" fill="#737474" d="M36.992,45.885c-0.007-2.581-0.015-5.163-0.021-7.743
		c0.683,0,1.366,0,2.049,0c-0.007,2.582-0.014,5.164-0.021,7.744C38.33,45.885,37.661,45.885,36.992,45.885z"/>
	<path fill-rule="evenodd" clip-rule="evenodd" fill="#159D58" d="M69.086,106.004c-4.058-1.532-6.61-4.745-9.037-8.098
		c-1.235-5.936-0.114-11.251,4.144-15.741c3.288-2.688,7.325-2.066,11.121-2.508c0.496,0.011,0.993,0.021,1.487,0.031
		c6.127,2.296,9.651,6.528,9.826,13.242c-6.394-3.52-10.493-3.355-13.635,0.543c-2.993,3.715-2.584,7.44,1.363,12.423
		C72.599,105.933,70.842,105.969,69.086,106.004z"/>
	<path fill-rule="evenodd" clip-rule="evenodd" fill="#B7D7AA" d="M74.358,105.896c-3.95-4.982-4.359-8.708-1.366-12.423
		c3.142-3.898,7.241-4.063,13.635-0.543c2.807,7.494,2.266,9.549-3.714,14.118c-2.28-0.096-4.562-0.191-6.843-0.288
		C75.5,106.473,74.929,106.185,74.358,105.896z"/>
	<path fill-rule="evenodd" clip-rule="evenodd" fill="#674131" d="M76.07,106.761c2.281,0.097,4.563,0.192,6.843,0.288
		c0.027,2.927,0.054,5.853,0.081,8.779c-2.674,0.011-5.348,0.022-8.021,0.034C75.363,112.831,73.881,109.575,76.07,106.761z"/>
	<path fill-rule="evenodd" clip-rule="evenodd" fill="#CDD8EF" d="M77.958,18.028c-2.284-0.512-3.847-1.594-4.079-4.221
		c-0.275-3.097,2.127-3.738,4.056-4.876c1.994,1.083,4.365,1.805,4.057,4.863C81.738,16.302,80.353,17.617,77.958,18.028z"/>
	<path fill-rule="evenodd" clip-rule="evenodd" fill="#CDD8EF" d="M85.769,52.874c-2.218,0.123-2.77-0.981-2.793-2.742
		c-0.025-1.942,0.486-3.155,2.746-3.055c2.095,0.092,2.262,1.426,2.271,3.024C88.002,51.812,87.573,53.06,85.769,52.874z"/>
	<path fill-rule="evenodd" clip-rule="evenodd" fill="#CDD8EF" d="M85.203,38.116c2.189-0.136,2.779,0.936,2.8,2.711
		c0.022,1.921-0.44,3.174-2.718,3.087c-2.085-0.081-2.298-1.383-2.298-2.999C82.986,39.226,83.367,37.94,85.203,38.116z"/>
	<path fill-rule="evenodd" clip-rule="evenodd" fill="#CDD8EF" d="M87.95,31.4c0.081,1.541-0.417,2.536-2.184,2.607
		c-1.844,0.075-2.806-0.594-2.767-2.553c0.032-1.677,0.837-2.381,2.461-2.376C87.04,29.083,88.021,29.66,87.95,31.4z"/>
	<path fill-rule="evenodd" clip-rule="evenodd" fill="#FFFFFF" d="M35.119,32.497c0-4.409,0-7.876,0-12.064
		c3.472,2.041,6.545,3.847,10.141,5.959C41.736,28.514,38.709,30.335,35.119,32.497z"/>
	<path fill-rule="evenodd" clip-rule="evenodd" fill="#FFFFFF" d="M34.025,38.153c-0.902,4.328-4.358,2.434-6.876,2.823
		c-0.047-0.94-0.095-1.882-0.143-2.823C29.345,38.153,31.686,38.153,34.025,38.153z"/>
	<path fill-rule="evenodd" clip-rule="evenodd" fill="#D4DDF2" d="M7.002,82.942c0.047-1.423-0.309-2.999,2.051-2.955
		c2.392,0.045,1.894,1.702,1.923,3.062c0.031,1.421,0.327,2.989-2.034,2.948C6.54,85.955,7.116,84.29,7.002,82.942z"/>
	<path fill-rule="evenodd" clip-rule="evenodd" fill="#D4DDF2" d="M15.038,82.748c-0.09-1.646,0.039-2.793,2.021-2.75
		c2.496,0.054,1.8,1.825,1.913,3.178c0.139,1.648-0.046,2.999-2.291,2.789C14.148,85.728,15.361,83.785,15.038,82.748z"/>
	<path fill-rule="evenodd" clip-rule="evenodd" fill="#D4DDF2" d="M15.038,92.747c-0.09-1.646,0.039-2.794,2.021-2.751
		c2.496,0.054,1.8,1.826,1.913,3.179c0.139,1.648-0.046,2.998-2.291,2.789C14.148,95.727,15.361,93.784,15.038,92.747z"/>
	<path fill-rule="evenodd" clip-rule="evenodd" fill="#D4DDF2" d="M7.019,93.043C6.978,91.34,6.851,89.88,9.15,89.988
		c2.418,0.113,1.748,1.839,1.827,3.155c0.089,1.492,0.182,2.958-2.129,2.852C6.415,95.881,7.179,94.144,7.019,93.043z"/>
	<path fill-rule="evenodd" clip-rule="evenodd" fill="#D4DDF2" d="M10.951,73.919c0.153,1.642-0.631,2.07-2.014,2.069
		c-1.482,0-1.938-0.672-1.935-2.064c0.004-1.483,0.68-1.944,2.07-1.928C10.528,72.012,11.171,72.604,10.951,73.919z"/>
	<path fill-rule="evenodd" clip-rule="evenodd" fill="#D4DDF2" d="M17.015,72.042c1.564-0.159,1.968,0.673,1.969,2.094
		c0.001,1.665-0.943,1.844-2.259,1.836c-1.328-0.007-1.665-0.698-1.709-1.87C14.962,72.653,15.468,71.877,17.015,72.042z"/>
	<path fill-rule="evenodd" clip-rule="evenodd" fill="#8DC17A" d="M75.313,79.657c-3.796,0.441-7.833-0.181-11.121,2.508
		c-0.104-8.278-0.211-16.558-0.316-24.836c4.67,5.415,7.138,12.128,11.405,18.313c-2.208,0.274-3.754,0.467-5.307,0.659
		C70.197,80.296,73.626,78.486,75.313,79.657z"/>
	<path fill-rule="evenodd" clip-rule="evenodd" fill="#D4DDF2" d="M70.209,34c-1.341,0.094-2.186-0.382-2.224-1.867
		c-0.033-1.324,0.408-2.194,1.884-2.247c1.346-0.048,2.164,0.472,2.241,1.913C72.184,33.157,71.674,33.984,70.209,34z"/>
	<path fill-rule="evenodd" clip-rule="evenodd" fill="#D4DDF2" d="M72.108,40.796c0.069,1.333-0.396,2.225-1.877,2.306
		c-1.371,0.075-2.19-0.456-2.242-1.924c-0.046-1.321,0.351-2.243,1.863-2.302C71.208,38.822,72.072,39.315,72.108,40.796z"/>
	<path fill-rule="evenodd" clip-rule="evenodd" fill="#D4DDF2" d="M72.112,50.062c-0.002,1.424-0.729,2.065-2.135,2.048
		c-1.464-0.018-2.013-0.806-1.988-2.18c0.024-1.41,0.686-2.094,2.119-2.05C71.544,47.925,72.159,48.678,72.112,50.062z"/>
	<path fill-rule="evenodd" clip-rule="evenodd" fill="#737474" d="M76.07,106.761c-2.189,2.814-0.707,6.07-1.098,9.102
		c-1.988,0-3.977,0-5.964,0c0.025-3.287,0.051-6.572,0.076-9.858c1.757-0.035,3.514-0.071,5.271-0.107
		C74.929,106.185,75.5,106.473,76.07,106.761z"/>
	<path fill-rule="evenodd" clip-rule="evenodd" fill="#65C2C8" d="M33.93,109.764c0.137,1.859-0.551,2.709-1.828,2.968
		c-1.346,0.273-2.315-0.411-2.509-1.723c-0.219-1.479,0.479-2.648,2.053-2.796C32.963,108.09,33.688,109.005,33.93,109.764z"/>
	<path fill-rule="evenodd" clip-rule="evenodd" fill="#65C2C8" d="M20.007,110.347c-0.042,1.518-0.798,2.303-2.083,2.402
		c-1.357,0.105-2.183-0.792-2.284-2.026c-0.124-1.507,0.758-2.516,2.303-2.481C19.256,108.27,19.907,109.212,20.007,110.347z"/>
	<path fill-rule="evenodd" clip-rule="evenodd" fill="#65C2C8" d="M26.949,110.023c0.123,1.589-0.551,2.463-1.809,2.695
		c-1.667,0.309-2.478-0.827-2.542-2.225c-0.056-1.215,0.798-2.209,2.101-2.27C25.974,108.166,26.793,108.932,26.949,110.023z"/>
</g>
</svg>
